HIERARCHY
ROOT Hips
{
 OFFSET 0.000000 0.000000 0.000000
 CHANNELS 6 Xposition Yposition Zposition Yrotation Xrotation Zrotation
 JOINT Chest
 {
  OFFSET 0.000000 9.585900 0.002600
  CHANNELS 3 Yrotation Xrotation Zrotation
  JOINT Chest2
  {
   OFFSET 0.000000 9.601200 -0.005300
   CHANNELS 3 Yrotation Xrotation Zrotation
   JOINT Chest3
   {
    OFFSET 0.000000 9.561800 0.000000
    CHANNELS 3 Yrotation Xrotation Zrotation
    JOINT Chest4
    {
     OFFSET 0.000000 9.552100 0.000000
     CHANNELS 3 Yrotation Xrotation Zrotation
     JOINT Neck
     {
      OFFSET 0.000000 14.453000 0.000000
      CHANNELS 3 Yrotation Xrotation Zrotation
      JOINT Head
      {
       OFFSET 0.000000 8.936500 -0.011300
       CHANNELS 3 Yrotation Xrotation Zrotation
       End Site
       {
        OFFSET 0.000000 17.073600 -0.006000
       }
      }
     }
     JOINT RightCollar
     {
      OFFSET -2.921100 9.558500 0.000000
      CHANNELS 3 Yrotation Xrotation Zrotation
      JOINT RightShoulder
      {
       OFFSET -13.519700 0.000000 0.000000
       CHANNELS 3 Yrotation Xrotation Zrotation
       JOINT RightElbow
       {
        OFFSET 0.000000 -29.696600 0.000000
        CHANNELS 3 Yrotation Xrotation Zrotation
        JOINT RightWrist
        {
         OFFSET 0.000000 -24.004700 0.000000
         CHANNELS 3 Yrotation Xrotation Zrotation
         End Site
         {
          OFFSET 0.000000 -17.728500 0.000000
         }
        }
       }
      }
     }
     JOINT LeftCollar
     {
      OFFSET 2.921100 9.558500 0.000000
      CHANNELS 3 Yrotation Xrotation Zrotation
      JOINT LeftShoulder
      {
       OFFSET 13.519700 0.000000 0.000000
       CHANNELS 3 Yrotation Xrotation Zrotation
       JOINT LeftElbow
       {
        OFFSET 0.000000 -29.696600 0.000000
        CHANNELS 3 Yrotation Xrotation Zrotation
        JOINT LeftWrist
        {
         OFFSET 0.000000 -24.004700 0.000000
         CHANNELS 3 Yrotation Xrotation Zrotation
         End Site
         {
          OFFSET 0.000000 -17.728500 0.000000
         }
        }
       }
      }
     }
    }
   }
  }
 }
 JOINT RightHip
 {
  OFFSET -7.771700 -0.012900 -0.001300
  CHANNELS 3 Yrotation Xrotation Zrotation
  JOINT RightKnee
  {
   OFFSET 0.000000 -40.869800 0.001200
   CHANNELS 3 Yrotation Xrotation Zrotation
   JOINT RightAnkle
   {
    OFFSET 0.000000 -39.717900 0.002100
    CHANNELS 3 Yrotation Xrotation Zrotation
    JOINT RightToe
    {
     OFFSET 0.000000 -4.965400 11.033500
     CHANNELS 3 Yrotation Xrotation Zrotation
     End Site
     {
      OFFSET 0.000000 -1.423100 5.872300
     }
    }
   }
  }
 }
 JOINT LeftHip
 {
  OFFSET 7.771700 -0.012900 -0.001300
  CHANNELS 3 Yrotation Xrotation Zrotation
  JOINT LeftKnee
  {
   OFFSET 0.000000 -40.869800 0.001200
   CHANNELS 3 Yrotation Xrotation Zrotation
   JOINT LeftAnkle
   {
    OFFSET 0.000000 -39.717900 0.002100
    CHANNELS 3 Yrotation Xrotation Zrotation
    JOINT LeftToe
    {
     OFFSET 0.000000 -4.965400 11.033500
     CHANNELS 3 Yrotation Xrotation Zrotation
     End Site
     {
      OFFSET 0.000000 -1.423100 5.872300
     }
    }
   }
  }
 }
}
MOTION
Frames: 12
Frame Time: 0.008333
30.248162 49.832482 64.525980 173.115501 -33.537282 -7.434068 6.677605 20.596728 7.318696 0.799476 2.889819 0.729461 1.330153 4.730908 1.223302 5.656389 17.565239 5.288548 -1.812636 16.463261 2.422664 -4.208542 -5.097313 5.126808 -2.384615 -3.541578 -4.957630 4.220108 -10.272124 -1.464155 26.044261 -77.257061 -40.285586 3.400983 -1.034680 10.730327 -10.147927 -1.809044 0.211958 6.333191 -7.567507 -1.786196 -102.548143 -79.206381 113.118731 11.943623 3.388828 -12.381708 -0.610726 -46.643844 10.145248 -117.059654 82.611526 -104.618437 0.054188 -13.710281 -4.276503 0.048067 0.919821 0.048733 -8.924194 -50.936859 17.481833 -152.336577 80.237401 -159.870688 1.831878 -17.578232 8.108646 -0.404767 -0.684544 -0.135890
30.249999 49.840655 64.531703 173.111211 -33.513250 -7.422425 6.686150 20.600523 7.320821 0.798186 2.895321 0.729138 1.338811 4.752558 1.229296 5.649164 17.548257 5.277827 -1.824200 16.414979 2.393994 -4.223595 -5.211246 5.058956 -2.385621 -3.601055 -4.996816 4.253467 -10.224856 -1.381168 26.744943 -77.441252 -40.958230 3.637561 -0.358537 10.733233 -10.203309 -1.783037 0.246624 6.500977 -7.592380 -1.783068 -103.874330 -79.501024 114.331210 11.521058 4.336429 -13.384117 -0.610960 -46.671487 10.144644 -117.054237 82.610289 -104.608909 0.046679 -13.711665 -4.296829 0.055418 0.919253 0.054360 -8.921623 -50.952292 17.489383 -152.184554 80.249557 -159.743374 1.843374 -17.576627 8.115307 -0.405566 -0.682957 -0.136267
30.244801 49.847598 64.536716 173.139220 -33.475781 -7.388276 6.651414 20.598063 7.278721 0.804879 2.918012 0.737161 1.328020 4.718729 1.216052 5.647139 17.548966 5.275886 -1.829314 16.393593 2.383372 -4.241602 -5.355306 4.974435 -2.386629 -3.625314 -5.011090 4.289704 -10.182946 -1.319746 27.719964 -77.666813 -41.898895 3.945791 0.540585 10.815425 -10.236496 -1.757373 0.265731 6.681093 -7.595084 -1.765090 -105.691990 -79.833816 116.025070 10.959446 5.548434 -14.669989 -0.592739 -46.708048 10.079202 -117.073032 82.603983 -104.624796 0.038042 -13.691829 -4.312963 0.069653 0.891417 0.061366 -8.892435 -50.985952 17.428444 -152.123322 80.279256 -159.707086 1.806946 -17.578041 8.123278 -0.365418 -0.661545 -0.121240
30.243802 49.856645 64.539608 173.150515 -33.454749 -7.371677 6.646527 20.606244 7.267608 0.793591 2.898193 0.729339 1.332718 4.739935 1.222532 5.642335 17.536189 5.268494 -1.838994 16.347367 2.348214 -4.262177 -5.494838 4.906887 -2.381437 -3.674645 -5.064402 4.302180 -10.106159 -1.217507 29.096683 -77.927975 -43.236692 4.340460 1.693637 11.036896 -10.278382 -1.717529 0.283651 6.909119 -7.602725 -1.747647 -108.019725 -80.152735 118.224579 10.244214 7.030236 -16.307254 -0.588281 -46.728902 10.052035 -117.113611 82.594177 -104.661675 0.045835 -13.703280 -4.327509 0.071481 0.891708 0.061600 -8.869009 -51.002190 17.397826 -152.076990 80.297187 -159.664123 1.768450 -17.564907 8.131373 -0.364954 -0.664254 -0.121670
30.238817 49.863221 64.544157 173.172569 -33.408174 -7.341790 6.624022 20.592234 7.233520 0.792457 2.896171 0.729566 1.330987 4.737771 1.220688 5.646339 17.552670 5.265817 -1.873559 16.204976 2.266997 -4.281060 -5.581684 4.872892 -2.400386 -3.746916 -5.112360 4.307202 -10.016155 -1.119431 31.075245 -78.211896 -45.181383 4.841889 3.120719 11.465103 -10.342901 -1.692256 0.306052 7.189955 -7.608855 -1.726697 -110.762084 -80.371448 120.844917 9.357863 8.749208 -18.348305 -0.606373 -46.776281 10.002394 -117.254591 82.595370 -104.815780 0.070138 -13.706650 -4.340397 0.056363 0.882520 0.052613 -8.840010 -51.048583 17.335503 -152.056106 80.316611 -159.646789 1.742789 -17.552692 8.134149 -0.354871 -0.663806 -0.119095
30.236714 49.871399 64.546056 173.188409 -33.377132 -7.326765 6.606661 20.578279 7.212550 0.798489 2.908785 0.733211 1.329643 4.735140 1.219322 5.636405 17.542360 5.258845 -1.892409 16.127564 2.222073 -4.304293 -5.727715 4.802132 -2.431435 -3.838952 -5.214608 4.309687 -9.865698 -0.965173 33.906235 -78.483452 -48.002429 5.479159 4.789745 12.180169 -10.390613 -1.664438 0.311530 7.506155 -7.581883 -1.687747 -113.624990 -80.399131 123.602793 8.282356 10.623457 -20.832008 -0.620151 -46.805944 9.969283 -117.368444 82.599412 -104.929845 0.090635 -13.708615 -4.353551 0.035373 0.869661 0.037468 -8.828815 -51.077169 17.300536 -152.058640 80.332146 -159.653278 1.731599 -17.539047 8.130881 -0.347116 -0.670747 -0.117328
30.232638 49.877951 64.548284 173.207161 -33.332165 -7.303516 6.581372 20.551418 7.179673 0.804952 2.919043 0.736613 1.326668 4.731391 1.217278 5.622991 17.527019 5.248831 -1.911572 16.047224 2.177940 -4.328569 -5.878179 4.731090 -2.461148 -3.904944 -5.297727 4.297253 -9.707045 -0.834402 37.772707 -78.680584 -51.900717 6.282760 6.576006 13.261057 -10.440389 -1.646287 0.312789 7.864360 -7.528643 -1.641499 -116.215583 -80.179796 126.111662 7.013171 12.538114 -23.778977 -0.627943 -46.849945 9.919282 -117.512302 82.609756 -105.072514 0.103834 -13.714994 -4.366975 0.024976 0.864069 0.028761 -8.797801 -51.119900 17.242887 -152.064056 80.356028 -159.660285 1.724010 -17.530706 8.134961 -0.340891 -0.668762 -0.117791
30.230362 49.885165 64.548384 173.219446 -33.296390 -7.286099 6.585607 20.559554 7.177687 0.792001 2.896103 0.726852 1.323324 4.724261 1.213958 5.610959 17.510227 5.235441 -1.931390 15.965455 2.136497 -4.355077 -6.030186 4.663463 -2.490477 -3.956235 -5.377676 4.265052 -9.531073 -0.714202 42.671640 -78.728537 -56.875739 7.279860 8.300919 14.769848 -10.490428 -1.644393 0.314286 8.262087 -7.450084 -1.592247 -118.274494 -79.702096 128.099844 5.559792 14.370648 -27.205537 -0.632641 -46.885165 9.881815 -117.660765 82.624429 -105.216410 0.108225 -13.720320 -4.377700 0.016851 0.858287 0.021065 -8.773438 -51.152162 17.199185 -152.047543 80.371384 -159.639476 1.708973 -17.526504 8.136734 -0.336033 -0.667094 -0.119360
30.231240 49.893527 64.546023 173.227051 -33.273600 -7.281828 6.576900 20.544459 7.170103 0.807195 2.924676 0.737660 1.314651 4.701867 1.205371 5.592771 17.485959 5.220058 -1.951784 15.886305 2.097491 -4.383292 -6.178119 4.602380 -2.527799 -4.008720 -5.470349 4.206361 -9.332858 -0.588249 48.386894 -78.569142 -62.684511 8.495280 9.815565 16.722292 -10.535099 -1.658780 0.316101 8.708325 -7.356798 -1.539342 -119.823024 -78.985535 129.543380 3.935973 16.019818 -31.102872 -0.637896 -46.906688 9.868358 -117.778847 82.639185 -105.324570 0.098992 -13.723230 -4.389557 0.014662 0.850305 0.018295 -8.765734 -51.167215 17.181509 -152.020213 80.383054 -159.611127 1.711707 -17.527103 8.135131 -0.322562 -0.670166 -0.126709
30.227667 49.896232 64.549348 173.240061 -33.194910 -7.255508 6.553219 20.495809 7.136612 0.801517 2.908132 0.733683 1.312419 4.695368 1.202830 5.587341 17.476638 5.213352 -1.975205 15.802285 2.057389 -4.412948 -6.315217 4.549460 -2.580097 -4.074911 -5.577765 4.109005 -9.125314 -0.455803 54.516113 -78.177862 -68.886661 9.919691 11.042090 19.062400 -10.572316 -1.696921 0.318889 9.207672 -7.261273 -1.483667 -121.071416 -78.079092 130.608364 2.165265 17.404927 -35.360507 -0.638044 -46.989415 9.817678 -117.971360 82.662273 -105.512273 0.093566 -13.734354 -4.402619 0.008988 0.851982 0.013397 -8.757547 -51.245561 17.139967 -151.992976 80.396874 -159.588951 1.712979 -17.525992 8.135292 -0.318471 -0.661392 -0.123577
30.226314 49.899406 64.551476 173.243620 -33.120570 -7.233897 6.552091 20.462572 7.127834 0.787697 2.877249 0.720380 1.309969 4.688625 1.200110 5.581189 17.467000 5.205945 -1.996417 15.722122 2.018958 -4.443850 -6.436863 4.505095 -2.645914 -4.149204 -5.692653 3.971010 -8.917405 -0.324450 60.569741 -77.553316 -74.974942 11.462094 11.935274 21.697432 -10.596966 -1.750562 0.326224 9.749610 -7.174344 -1.421205 -122.222232 -77.051317 131.470639 0.296504 18.455526 -39.765201 -0.637580 -47.070651 9.787274 -118.108879 82.670780 -105.649073 0.095512 -13.735920 -4.409245 0.000811 0.847589 0.008846 -8.756038 -51.320395 17.117176 -151.977125 80.405743 -159.579238 1.718659 -17.520884 8.135138 -0.317728 -0.661035 -0.122211
30.226408 49.902831 64.552966 173.242308 -33.046328 -7.216015 6.556284 20.425563 7.117400 0.781935 2.857578 0.717974 1.305550 4.672309 1.194073 5.572377 17.442205 5.190663 -2.017321 15.661494 1.991880 -4.474990 -6.541103 4.467374 -2.726345 -4.214161 -5.801729 3.795711 -8.712757 -0.208378 66.135536 -76.721750 -80.530085 12.976403 12.439101 24.537072 -10.611704 -1.778803 0.340502 10.319380 -7.131448 -1.343837 -123.374869 -75.964546 132.209811 -1.596370 19.121802 -44.140672 -0.651283 -47.156194 9.783350 -118.238677 82.669610 -105.787340 0.083848 -13.724338 -4.417566 0.008827 0.830970 0.011060 -8.764190 -51.394812 17.110056 -151.945491 80.410344 -159.556308 1.728329 -17.513679 8.134916 -0.320405 -0.668055 -0.126356
